<svg xmlns="http://www.w3.org/2000/svg" viewBox="0 0 1800 793" role="img" aria-label="One Stop Outdoor Construction LLC logo">
  <path d="M 351.00 783.50 L 238.50 780.00 L 244.50 332.00 L 241.00 331.50 L 111.00 380.50 L 8.50 335.00 L 577.00 130.50 L 579.00 13.50 L 746.00 13.50 L 746.50 72.00 L 749.00 72.50 L 913.00 8.50 L 1790.50 338.00 L 1700.00 377.50 L 1693.00 378.50 L 906.00 88.50 L 352.50 296.00 L 351.00 783.50 Z" fill="#9a0202" fill-rule="evenodd"/>
  <path d="M 1274.00 482.50 L 1250.00 479.50 L 1226.00 467.50 L 1206.50 444.00 L 1200.50 430.00 L 1196.50 409.00 L 1198.50 382.00 L 1203.50 367.00 L 1212.50 352.00 L 1236.00 331.50 L 1261.00 323.50 L 1291.00 324.50 L 1315.00 334.50 L 1327.50 345.00 L 1337.50 358.00 L 1344.50 373.00 L 1348.50 390.00 L 1346.50 426.00 L 1337.50 447.00 L 1329.50 458.00 L 1307.00 475.50 L 1288.00 481.50 L 1274.00 482.50 Z M 1405.00 477.50 L 1362.50 477.00 L 1363.00 472.50 L 1372.00 472.50 L 1378.00 469.50 L 1381.50 463.00 L 1381.50 391.00 L 1380.50 340.00 L 1374.00 331.50 L 1361.00 329.50 L 1361.00 325.50 L 1435.00 324.50 L 1453.00 327.50 L 1466.00 334.50 L 1473.50 342.00 L 1480.50 356.00 L 1478.50 381.00 L 1466.00 397.50 L 1445.00 406.50 L 1414.50 409.00 L 1415.50 463.00 L 1422.00 470.50 L 1435.00 471.50 L 1435.50 476.00 L 1405.00 477.50 Z M 941.00 486.50 L 937.50 486.00 L 936.50 478.00 L 937.00 428.50 L 940.50 429.00 L 947.50 450.00 L 955.50 462.00 L 972.00 474.50 L 982.00 477.50 L 999.00 475.50 L 1008.50 468.00 L 1012.50 460.00 L 1011.50 447.00 L 1003.00 435.50 L 959.00 410.50 L 941.50 393.00 L 935.50 374.00 L 936.50 360.00 L 941.50 348.00 L 951.00 336.50 L 968.00 327.50 L 992.00 327.50 L 1012.00 336.50 L 1018.00 336.50 L 1021.50 327.00 L 1025.00 326.50 L 1027.00 377.50 L 1022.50 377.00 L 1019.50 364.00 L 1012.50 352.00 L 1004.00 343.50 L 991.00 336.50 L 977.00 335.50 L 967.00 339.50 L 960.50 347.00 L 958.50 359.00 L 962.50 367.00 L 973.00 376.50 L 1009.00 395.50 L 1028.50 412.00 L 1037.50 434.00 L 1036.50 449.00 L 1031.50 462.00 L 1020.00 475.50 L 1002.00 484.50 L 979.00 485.50 L 951.00 476.50 L 941.00 486.50 Z M 1091.00 481.50 L 1081.00 481.50 L 1080.50 477.00 L 1092.00 475.50 L 1099.50 468.00 L 1098.50 338.00 L 1079.00 338.50 L 1070.00 342.50 L 1060.50 355.00 L 1056.50 370.00 L 1053.00 370.50 L 1051.50 330.00 L 1180.00 327.50 L 1180.00 368.50 L 1176.50 368.00 L 1169.50 349.00 L 1159.00 339.50 L 1153.00 337.50 L 1133.50 338.00 L 1135.50 469.00 L 1142.00 474.50 L 1155.00 475.50 L 1155.50 479.00 L 1091.00 481.50 Z M 747.00 485.50 L 734.00 485.50 L 732.50 481.00 L 746.00 479.50 L 752.50 470.00 L 751.50 349.00 L 748.00 341.50 L 743.00 338.50 L 732.00 337.50 L 731.50 334.00 L 850.00 331.50 L 851.50 376.00 L 848.00 377.50 L 840.50 357.00 L 827.00 344.50 L 816.00 341.50 L 785.50 342.00 L 786.50 402.00 L 797.00 402.50 L 807.50 396.00 L 812.50 387.00 L 817.00 367.50 L 820.50 368.00 L 821.50 391.00 L 821.00 446.50 L 816.50 445.00 L 813.50 429.00 L 808.00 419.50 L 801.00 413.50 L 786.50 412.00 L 787.50 467.00 L 789.50 472.00 L 795.00 475.50 L 817.00 475.50 L 834.00 470.50 L 848.50 458.00 L 857.50 436.00 L 862.00 435.50 L 856.50 483.00 L 747.00 485.50 Z M 1277.50 473.00 L 1292.00 467.50 L 1300.50 458.00 L 1305.50 447.00 L 1310.50 421.00 L 1310.50 389.00 L 1305.50 360.00 L 1296.50 343.00 L 1286.00 334.50 L 1267.00 332.50 L 1254.00 338.50 L 1245.50 348.00 L 1240.50 359.00 L 1235.50 382.00 L 1235.50 420.00 L 1240.50 445.00 L 1249.50 462.00 L 1264.00 472.50 L 1277.50 473.00 Z M 501.00 491.50 L 477.00 491.50 L 448.00 481.50 L 435.50 471.00 L 425.50 458.00 L 418.50 445.00 L 413.50 427.00 L 413.50 397.00 L 422.50 371.00 L 430.50 359.00 L 444.00 346.50 L 469.00 334.50 L 503.00 333.50 L 531.00 344.50 L 552.50 366.00 L 563.50 392.00 L 564.50 425.00 L 561.50 439.00 L 553.50 457.00 L 544.50 469.00 L 530.00 481.50 L 501.00 491.50 Z M 705.00 489.50 L 700.50 489.00 L 604.00 364.50 L 605.50 469.00 L 613.00 479.50 L 627.00 481.50 L 627.50 486.00 L 575.50 487.00 L 576.00 482.50 L 587.00 481.50 L 595.50 472.00 L 596.50 405.00 L 595.50 353.00 L 585.00 341.50 L 575.00 339.50 L 575.00 335.50 L 625.00 334.50 L 696.00 426.50 L 694.50 350.00 L 689.00 341.50 L 675.00 338.50 L 674.50 334.00 L 722.50 334.00 L 721.00 338.50 L 707.50 343.00 L 703.50 357.00 L 705.00 489.50 Z M 1424.50 399.00 L 1433.00 396.50 L 1441.50 388.00 L 1445.50 375.00 L 1445.50 358.00 L 1442.50 347.00 L 1437.00 339.50 L 1428.00 334.50 L 1414.00 333.50 L 1414.50 399.00 L 1424.50 399.00 Z M 497.50 482.00 L 505.00 479.50 L 512.50 473.00 L 522.50 453.00 L 526.50 429.00 L 525.50 388.00 L 522.50 373.00 L 514.50 355.00 L 503.00 344.50 L 485.00 341.50 L 472.00 346.50 L 457.50 366.00 L 451.50 394.00 L 451.50 427.00 L 457.50 457.00 L 467.50 474.00 L 478.00 481.50 L 497.50 482.00 Z M 1268.00 634.50 L 1233.00 632.50 L 1214.00 624.50 L 1191.50 601.00 L 1183.50 581.00 L 1182.50 552.00 L 1189.50 530.00 L 1201.50 514.00 L 1213.00 504.50 L 1237.00 494.50 L 1269.00 493.50 L 1285.00 497.50 L 1299.00 504.50 L 1317.50 522.00 L 1324.50 534.00 L 1329.50 551.00 L 1329.50 575.00 L 1324.50 593.00 L 1317.50 605.00 L 1297.00 624.50 L 1268.00 634.50 Z M 1102.00 636.50 L 1070.00 634.50 L 1052.00 626.50 L 1031.50 607.00 L 1021.50 586.00 L 1019.50 556.00 L 1028.50 529.00 L 1049.00 507.50 L 1074.00 496.50 L 1105.00 495.50 L 1133.00 504.50 L 1154.50 524.00 L 1162.50 538.00 L 1166.50 551.00 L 1166.50 579.00 L 1162.50 593.00 L 1152.50 610.00 L 1133.00 627.50 L 1116.00 634.50 L 1102.00 636.50 Z M 1383.00 630.50 L 1341.50 630.00 L 1342.00 626.50 L 1355.00 624.50 L 1359.50 620.00 L 1360.50 614.00 L 1359.50 512.00 L 1356.00 502.50 L 1351.00 499.50 L 1340.00 499.50 L 1339.50 495.00 L 1429.00 494.50 L 1452.00 501.50 L 1460.50 509.00 L 1466.50 519.00 L 1467.50 539.00 L 1463.50 549.00 L 1456.00 557.50 L 1438.50 566.00 L 1476.50 617.00 L 1482.00 622.50 L 1490.00 624.50 L 1490.50 628.00 L 1447.00 629.50 L 1402.50 569.00 L 1393.00 568.50 L 1393.50 617.00 L 1398.00 623.50 L 1412.00 625.50 L 1412.50 629.00 L 1383.00 630.50 Z M 880.00 636.50 L 864.00 636.50 L 863.50 633.00 L 875.00 631.50 L 882.50 625.00 L 881.50 514.00 L 876.00 506.50 L 863.00 504.50 L 862.50 502.00 L 950.00 501.50 L 966.00 506.50 L 984.00 518.50 L 996.50 536.00 L 1002.50 559.00 L 1000.50 588.00 L 988.50 612.00 L 974.00 624.50 L 947.00 634.50 L 880.00 636.50 Z M 827.00 637.50 L 754.50 637.00 L 755.00 633.50 L 767.00 632.50 L 773.50 626.00 L 772.50 511.00 L 755.00 510.50 L 746.00 513.50 L 736.50 524.00 L 732.50 538.00 L 728.00 539.50 L 728.00 502.50 L 851.50 502.00 L 852.00 537.50 L 847.50 536.00 L 841.50 520.00 L 833.00 512.50 L 823.00 509.50 L 806.50 510.00 L 807.50 623.00 L 814.00 631.50 L 827.00 632.50 L 827.00 637.50 Z M 1263.50 626.00 L 1270.00 624.50 L 1278.00 618.50 L 1287.50 603.00 L 1292.50 577.00 L 1291.50 543.00 L 1286.50 523.00 L 1273.00 505.50 L 1264.00 501.50 L 1248.00 501.50 L 1238.00 506.50 L 1230.50 514.00 L 1222.50 531.00 L 1219.50 549.00 L 1220.50 586.00 L 1225.50 604.00 L 1238.00 621.50 L 1250.00 626.50 L 1263.50 626.00 Z M 1410.50 560.00 L 1421.00 557.50 L 1430.50 549.00 L 1434.50 535.00 L 1432.50 519.00 L 1429.50 512.00 L 1420.00 504.50 L 1405.00 501.50 L 1392.00 502.50 L 1392.50 560.00 L 1410.50 560.00 Z M 493.00 644.50 L 464.00 641.50 L 441.00 629.50 L 422.50 607.00 L 414.50 579.00 L 417.50 551.00 L 429.50 529.00 L 450.00 511.50 L 467.00 504.50 L 480.00 502.50 L 510.00 504.50 L 534.00 515.50 L 553.50 537.00 L 559.50 550.00 L 562.50 565.00 L 559.50 595.00 L 546.50 619.00 L 532.00 632.50 L 519.00 639.50 L 493.00 644.50 Z M 653.00 642.50 L 635.00 642.50 L 620.00 639.50 L 608.00 632.50 L 598.50 623.00 L 592.50 603.00 L 590.50 514.00 L 585.00 509.50 L 574.00 508.50 L 574.00 504.50 L 645.50 504.00 L 645.00 507.50 L 632.00 508.50 L 625.50 517.00 L 626.50 608.00 L 627.50 615.00 L 635.00 625.50 L 644.00 630.50 L 661.00 631.50 L 674.00 626.50 L 680.50 621.00 L 688.50 602.00 L 687.50 517.00 L 683.00 510.50 L 669.00 507.50 L 668.50 504.00 L 716.50 503.00 L 716.00 506.50 L 703.00 509.50 L 697.50 518.00 L 697.50 604.00 L 694.50 616.00 L 690.50 623.00 L 678.00 634.50 L 668.00 639.50 L 653.00 642.50 Z M 1094.50 629.00 L 1109.00 625.50 L 1118.50 617.00 L 1123.50 608.00 L 1129.50 583.00 L 1129.50 553.00 L 1125.50 529.00 L 1116.50 513.00 L 1109.00 506.50 L 1101.00 503.50 L 1086.00 503.50 L 1075.00 508.50 L 1065.50 519.00 L 1061.50 528.00 L 1057.50 544.00 L 1056.50 574.00 L 1060.50 600.00 L 1067.50 615.00 L 1078.00 625.50 L 1094.50 629.00 Z M 936.50 627.00 L 946.00 623.50 L 953.50 617.00 L 962.50 600.00 L 965.50 583.00 L 964.50 549.00 L 957.50 528.00 L 945.00 513.50 L 931.00 508.50 L 916.00 508.50 L 916.50 621.00 L 922.00 627.50 L 936.50 627.00 Z M 491.50 636.00 L 505.00 632.50 L 514.50 624.00 L 520.50 612.00 L 524.50 596.00 L 525.50 569.00 L 522.50 543.00 L 512.50 521.00 L 501.00 512.50 L 484.00 510.50 L 471.00 515.50 L 459.50 529.00 L 452.50 553.00 L 451.50 575.00 L 454.50 602.00 L 464.50 625.00 L 477.00 634.50 L 491.50 636.00 Z M 1647.00 749.50 L 1625.00 746.50 L 1613.00 738.50 L 1606.50 730.00 L 1600.50 717.00 L 1598.50 705.00 L 1600.50 681.00 L 1611.50 660.00 L 1628.00 647.50 L 1648.00 645.50 L 1669.00 651.50 L 1671.50 645.00 L 1674.00 644.50 L 1674.00 679.50 L 1671.50 678.00 L 1667.50 665.00 L 1653.00 652.50 L 1640.00 652.50 L 1635.00 655.50 L 1629.50 660.00 L 1622.50 674.00 L 1620.50 707.00 L 1622.50 720.00 L 1628.00 732.50 L 1640.00 741.50 L 1653.00 741.50 L 1665.00 734.50 L 1673.50 725.00 L 1673.50 733.00 L 1665.00 742.50 L 1647.00 749.50 Z M 1577.00 748.50 L 1515.50 748.00 L 1516.00 745.50 L 1523.00 744.50 L 1526.50 740.00 L 1526.50 675.00 L 1525.50 657.00 L 1521.00 652.50 L 1515.00 652.50 L 1515.00 649.50 L 1557.50 649.00 L 1557.00 651.50 L 1549.00 652.50 L 1545.50 658.00 L 1546.50 738.00 L 1553.00 742.50 L 1574.00 739.50 L 1582.50 729.00 L 1586.50 714.00 L 1589.00 712.50 L 1587.50 747.00 L 1577.00 748.50 Z M 1276.00 753.50 L 1257.00 753.50 L 1245.00 748.50 L 1230.50 732.00 L 1223.50 711.00 L 1223.50 692.00 L 1231.50 670.00 L 1248.00 653.50 L 1262.00 649.50 L 1279.00 651.50 L 1293.00 659.50 L 1305.50 677.00 L 1309.50 694.00 L 1307.50 721.00 L 1300.50 736.00 L 1291.00 746.50 L 1276.00 753.50 Z M 1482.00 749.50 L 1434.50 749.00 L 1435.00 746.50 L 1442.00 745.50 L 1445.50 740.00 L 1445.50 703.00 L 1444.50 658.00 L 1442.00 654.50 L 1434.00 652.50 L 1434.00 649.50 L 1476.50 650.00 L 1476.00 652.50 L 1470.00 652.50 L 1464.50 658.00 L 1464.50 731.00 L 1468.00 742.50 L 1485.00 743.50 L 1494.00 739.50 L 1502.50 727.00 L 1505.50 714.00 L 1508.50 714.00 L 1506.50 748.00 L 1482.00 749.50 Z M 1388.00 752.50 L 1383.50 749.00 L 1332.00 671.50 L 1332.50 740.00 L 1336.00 745.50 L 1344.00 747.50 L 1344.50 750.00 L 1315.50 751.00 L 1317.00 747.50 L 1323.00 746.50 L 1327.50 739.00 L 1327.50 699.00 L 1326.50 664.00 L 1320.00 655.50 L 1314.50 654.00 L 1315.00 651.50 L 1344.00 651.50 L 1383.00 710.50 L 1382.50 662.00 L 1380.50 657.00 L 1372.00 653.50 L 1371.50 651.00 L 1398.50 651.00 L 1398.00 653.50 L 1393.00 654.50 L 1388.50 659.00 L 1387.50 664.00 L 1388.00 752.50 Z M 1059.00 756.50 L 1044.00 756.50 L 1034.00 753.50 L 1016.50 739.00 L 1008.50 720.00 L 1007.50 699.00 L 1009.50 688.00 L 1018.50 670.00 L 1029.00 659.50 L 1038.00 654.50 L 1058.00 652.50 L 1077.00 659.50 L 1083.00 652.50 L 1083.00 686.50 L 1072.50 667.00 L 1060.00 659.50 L 1051.00 659.50 L 1043.00 663.50 L 1035.50 672.00 L 1030.50 685.00 L 1029.50 715.00 L 1031.50 727.00 L 1035.50 737.00 L 1044.00 746.50 L 1053.00 749.50 L 1063.00 748.50 L 1071.00 744.50 L 1082.50 732.00 L 1082.50 741.00 L 1068.00 753.50 L 1059.00 756.50 Z M 1217.00 752.50 L 1174.50 752.00 L 1175.00 749.50 L 1183.00 748.50 L 1185.50 744.00 L 1185.50 696.00 L 1184.50 661.00 L 1180.00 656.50 L 1174.00 656.50 L 1174.00 653.50 L 1215.50 653.00 L 1215.00 655.50 L 1207.00 657.50 L 1204.50 663.00 L 1204.50 693.00 L 1205.50 743.00 L 1209.00 748.50 L 1217.00 749.50 L 1217.00 752.50 Z M 1152.00 753.50 L 1110.50 753.00 L 1111.00 750.50 L 1118.00 749.50 L 1121.50 745.00 L 1120.50 660.00 L 1113.00 659.50 L 1105.00 662.50 L 1099.50 670.00 L 1097.50 681.00 L 1095.00 681.50 L 1095.00 654.50 L 1166.50 654.00 L 1167.00 680.50 L 1164.50 680.00 L 1159.50 665.00 L 1154.00 660.50 L 1140.50 660.00 L 1141.50 744.00 L 1144.00 748.50 L 1152.00 749.50 L 1152.00 753.50 Z M 966.00 757.50 L 946.00 756.50 L 937.00 750.50 L 931.50 743.00 L 928.50 732.00 L 927.50 665.00 L 923.00 659.50 L 918.00 659.50 L 918.00 656.50 L 958.50 657.00 L 951.00 659.50 L 947.50 665.00 L 948.50 736.00 L 950.50 742.00 L 957.00 748.50 L 970.00 749.50 L 980.50 741.00 L 984.50 728.00 L 984.50 673.00 L 981.50 662.00 L 973.00 658.50 L 972.50 656.00 L 1000.50 656.00 L 1000.00 658.50 L 993.00 659.50 L 989.50 665.00 L 989.50 732.00 L 987.50 740.00 L 979.00 751.50 L 966.00 757.50 Z M 1269.50 748.00 L 1279.50 742.00 L 1284.50 732.00 L 1287.50 717.00 L 1287.50 690.00 L 1280.50 664.00 L 1274.00 657.50 L 1266.00 655.50 L 1258.00 658.50 L 1249.50 670.00 L 1245.50 686.00 L 1245.50 716.00 L 1253.50 741.00 L 1262.00 747.50 L 1269.50 748.00 Z M 687.00 761.50 L 685.00 723.50 L 687.50 724.00 L 695.50 745.00 L 705.00 753.50 L 717.00 755.50 L 727.50 745.00 L 727.50 736.00 L 722.50 728.00 L 701.00 714.50 L 688.50 702.00 L 684.50 691.00 L 687.50 670.00 L 697.00 659.50 L 702.00 657.50 L 713.00 656.50 L 730.00 663.50 L 735.00 656.50 L 736.00 689.50 L 733.50 689.00 L 727.50 673.00 L 719.00 664.50 L 713.00 662.50 L 705.00 663.50 L 699.50 668.00 L 697.50 679.00 L 707.00 690.50 L 727.00 702.50 L 737.50 713.00 L 741.50 723.00 L 739.50 744.00 L 733.50 753.00 L 724.00 759.50 L 706.00 760.50 L 697.00 755.50 L 692.00 755.50 L 687.00 761.50 Z M 916.00 756.50 L 892.00 756.50 L 865.00 711.50 L 859.50 712.00 L 860.50 749.00 L 866.00 753.50 L 871.00 753.50 L 871.50 756.00 L 829.50 756.00 L 830.00 753.50 L 836.00 753.50 L 840.50 750.00 L 840.50 669.00 L 836.00 661.50 L 828.50 660.00 L 829.00 657.50 L 882.00 657.50 L 890.00 659.50 L 898.50 667.00 L 903.50 681.00 L 902.50 694.00 L 896.50 704.00 L 886.50 710.00 L 909.50 749.00 L 916.50 753.00 L 916.00 756.50 Z M 808.00 757.50 L 766.50 757.00 L 767.00 754.50 L 774.00 753.50 L 777.50 749.00 L 776.50 665.00 L 765.00 664.50 L 761.00 666.50 L 751.00 685.50 L 750.00 658.50 L 822.50 658.00 L 822.00 684.50 L 812.00 666.50 L 805.00 663.50 L 795.50 664.00 L 797.50 750.00 L 801.00 753.50 L 808.00 754.50 L 808.00 757.50 Z M 552.00 762.50 L 536.00 762.50 L 521.00 756.50 L 508.50 742.00 L 501.50 722.00 L 500.50 704.00 L 503.50 689.00 L 508.50 679.00 L 522.00 664.50 L 533.00 659.50 L 554.00 659.50 L 568.00 666.50 L 577.50 677.00 L 585.50 695.00 L 586.50 721.00 L 581.50 738.00 L 568.00 755.50 L 552.00 762.50 Z M 466.00 763.50 L 441.00 761.50 L 423.50 748.00 L 413.50 724.00 L 413.50 703.00 L 420.50 683.00 L 430.50 670.00 L 438.00 664.50 L 448.00 660.50 L 461.00 659.50 L 483.00 666.50 L 489.00 659.50 L 489.00 694.50 L 486.50 694.00 L 483.50 682.00 L 476.00 672.50 L 468.00 667.50 L 458.00 666.50 L 450.00 669.50 L 442.50 677.00 L 435.50 695.00 L 436.50 731.00 L 440.50 743.00 L 449.00 753.50 L 456.00 756.50 L 470.00 755.50 L 488.50 739.00 L 488.50 748.00 L 478.00 758.50 L 466.00 763.50 Z M 666.00 761.50 L 661.50 759.00 L 609.00 680.50 L 609.50 748.00 L 613.00 754.50 L 621.00 756.50 L 621.50 759.00 L 592.50 760.00 L 593.00 756.50 L 600.00 755.50 L 604.50 749.00 L 604.50 679.00 L 602.50 670.00 L 597.00 664.50 L 592.00 663.50 L 592.00 660.50 L 620.00 659.50 L 660.00 719.50 L 660.50 674.00 L 658.50 667.00 L 649.00 662.50 L 648.50 660.00 L 675.50 660.00 L 675.00 662.50 L 668.00 664.50 L 665.50 669.00 L 666.00 761.50 Z M 871.50 705.00 L 875.00 704.50 L 882.50 695.00 L 882.50 674.00 L 879.50 668.00 L 873.00 663.50 L 860.00 663.50 L 859.50 705.00 L 871.50 705.00 Z M 549.50 756.00 L 556.50 751.00 L 563.50 735.00 L 564.50 696.00 L 562.50 684.00 L 556.50 671.00 L 547.00 664.50 L 541.00 664.50 L 529.50 673.00 L 525.50 682.00 L 522.50 698.00 L 522.50 721.00 L 525.50 739.00 L 531.50 751.00 L 539.00 756.50 L 549.50 756.00 Z" fill="#08076a" fill-rule="evenodd"/>
</svg>